<?xml version="1.0" standalone="no"?><!DOCTYPE svg PUBLIC "-//W3C//DTD SVG 1.1//EN" "http://www.w3.org/Graphics/SVG/1.1/DTD/svg11.dtd"><svg t="1639649981248" class="icon" viewBox="0 0 1024 1024" version="1.1" xmlns="http://www.w3.org/2000/svg" p-id="5031" width="32" height="32" xmlns:xlink="http://www.w3.org/1999/xlink"><defs><style type="text/css"></style></defs><path d="M12.487805 949.073171h999.02439v49.951219H12.487805zM12.487805 824.195122h999.02439v49.951219H12.487805z" fill="#E5D9C5" p-id="5032"></path><path d="M649.365854 674.341463a87.414634 87.414634 0 1 1-0.024976 174.854244A87.414634 87.414634 0 0 1 649.365854 674.341463" fill="#FFBA57" p-id="5033"></path><path d="M978.14478 47.228878a49.95122 49.95122 0 0 0-69.257365-13.861463L524.487805 274.731707 140.088195 33.367415a49.95122 49.95122 0 0 0-55.395902 83.118829L412.097561 360.198244V986.536585a37.463415 37.463415 0 0 0 74.926829 0L512 674.341463l378.904976-203.751024a37.463415 37.463415 0 0 0-33.517269-67.034537L636.878049 498.413268v-142.086244l327.405268-239.84078a49.95122 49.95122 0 0 0 13.861463-69.257366z" fill="#FFBA57" p-id="5034"></path><path d="M500.011707 824.195122l11.988293-149.853659 249.756098-134.318829v-95.331902l-124.878049 53.722536v-142.086244L524.487805 274.731707 412.097561 360.198244V824.195122z" fill="#FF754C" p-id="5035"></path><path d="M586.926829 393.365854v126.551414L636.878049 499.512195v-139.438829z" fill="#E64A19" p-id="5036"></path></svg>